# xmcd
#
# Track frame offsets:
#	150
#	11597
#	26177
#	36759
#	62638
#	73378
#	89360
#	103637
#	114458
#	129761
#	143832
#	165301
#	177029
#	191438
#	202650
#
# Disc length: 2876 seconds
# Revision: 0
# Processed by: cddbd v1.5.2PL0 Copyright (c) Steve Scherf et al.
# Submitted via: dBpowerAMP V12.0
#
DISCID=c10b3a0f
DTITLE=Past Due and Playable - Coming Soon!
DYEAR=2004
DGENRE=Country
TTITLE0=Until You Take Me Back Again
TTITLE1=Black Ice
TTITLE2=Home Fires a Burnin'
TTITLE3=Free Range Chicken
TTITLE4=Just for You
TTITLE5=Propane
TTITLE6=After You've Gone
TTITLE7=Humours of MacKs Well House
TTITLE8=Still Small Voice
TTITLE9=Kentucky Whiskey
TTITLE10=Lonesome in the Saddle
TTITLE11=Denver
TTITLE12=Forever and Beyond the End of Time
TTITLE13=Keep It to Yourself
TTITLE14=Catharsis
EXTD=
EXTT0=
EXTT1=
EXTT2=
EXTT3=
EXTT4=
EXTT5=
EXTT6=
EXTT7=
EXTT8=
EXTT9=
EXTT10=
EXTT11=
EXTT12=
EXTT13=
EXTT14=
PLAYORDER=
